<?xml version="1.0" encoding="UTF-8" standalone="no"?>
<!-- Created with Inkscape (http://www.inkscape.org/) -->

<svg
   xmlns:dc="http://purl.org/dc/elements/1.1/"
   xmlns:cc="http://creativecommons.org/ns#"
   xmlns:rdf="http://www.w3.org/1999/02/22-rdf-syntax-ns#"
   xmlns:svg="http://www.w3.org/2000/svg"
   xmlns="http://www.w3.org/2000/svg"
   xmlns:sodipodi="http://sodipodi.sourceforge.net/DTD/sodipodi-0.dtd"
   xmlns:inkscape="http://www.inkscape.org/namespaces/inkscape"
   width="175mm"
   height="175mm"
   viewBox="0 0 175 175"
   version="1.1"
   id="svg8"
   inkscape:version="0.92.4 (5da689c313, 2019-01-14)"
   sodipodi:docname="logo.svg">
  <defs
     id="defs2" />
  <sodipodi:namedview
     id="base"
     pagecolor="#ffffff"
     bordercolor="#666666"
     borderopacity="1.0"
     inkscape:pageopacity="0.0"
     inkscape:pageshadow="2"
     inkscape:zoom="0.49497475"
     inkscape:cx="463.80848"
     inkscape:cy="453.5446"
     inkscape:document-units="mm"
     inkscape:current-layer="layer1"
     showgrid="false"
     inkscape:window-width="1837"
     inkscape:window-height="1057"
     inkscape:window-x="75"
     inkscape:window-y="-8"
     inkscape:window-maximized="1" />
  <metadata
     id="metadata5">
    <rdf:RDF>
      <cc:Work
         rdf:about="">
        <dc:format>image/svg+xml</dc:format>
        <dc:type
           rdf:resource="http://purl.org/dc/dcmitype/StillImage" />
        <dc:title></dc:title>
      </cc:Work>
    </rdf:RDF>
  </metadata>
  <g
     inkscape:label="Layer 1"
     inkscape:groupmode="layer"
     id="layer1"
     transform="translate(0,-122)">
    <g
       id="g21"
       transform="matrix(2.0189319,0,0,2.0369666,-124.15541,-67.949759)">
      <path
         style="fill:#376bf4;stroke-width:0.26458335"
         d="m 89.599245,166.65125 c -6.250176,-0.24242 -11.029411,-0.66323 -13.229168,-1.16483 -5.381592,-1.22716 -9.201634,-5.02131 -10.525607,-10.45428 -1.883716,-7.72988 -1.984303,-28.10609 -0.182857,-37.04146 1.131752,-5.61361 4.340337,-9.48959 9.187661,-11.09873 3.682954,-1.22261 14.196086,-1.86513 30.492676,-1.8636 15.81535,10e-4 26.01035,0.58734 29.79857,1.71235 1.96786,0.58441 4.31147,2.09069 5.87563,3.77638 3.71268,4.00116 4.65378,9.08293 4.6669,25.20048 0.0135,16.54555 -1.01018,21.97043 -4.88911,25.91005 -2.79691,2.84068 -5.59502,3.93305 -11.50719,4.49239 -7.78794,0.73679 -27.56294,1.0015 -39.687505,0.53125 z m 13.108935,-18.6202 c 11.05271,-6.95053 14.68482,-9.34757 15.1794,-10.01779 0.74013,-1.00296 0.74008,-2.79773 -1.1e-4,-3.78914 -0.30325,-0.40617 -1.97013,-1.65115 -3.70417,-2.76663 -1.73404,-1.11547 -5.7563,-3.70891 -8.93835,-5.7632 -3.18205,-2.05429 -6.001283,-3.73506 -6.264959,-3.73506 -1.165547,0 -1.738426,1.65354 -0.847934,2.44745 0.254662,0.22704 4.213493,2.677 8.797393,5.44436 8.75127,5.28323 9.17015,5.62531 8.54742,6.98034 -0.18281,0.39778 -3.13072,2.28656 -8.58014,5.49746 -8.292669,4.8862 -9.492277,5.70432 -9.492277,6.47357 0,0.49664 0.926859,1.46723 1.401122,1.46723 0.188535,0 1.944705,-1.00737 3.902605,-2.23859 z"
         id="path35"
         inkscape:connector-curvature="0" />
      <path
         style="fill:#565cd6;stroke-width:0.26458335"
         d="m 89.466953,166.64132 c -2.983177,-0.1189 -6.43599,-0.32153 -7.672917,-0.45028 -1.773713,-0.18463 -1.2146,-0.2107 2.645833,-0.12337 3.751271,0.0849 4.782797,0.0397 4.415404,-0.19305 -0.263662,-0.16707 -1.0971,-0.93098 -1.852083,-1.69758 l -1.372696,-1.39382 -3.7642,-0.4484 c -5.781301,-0.68868 -7.691902,-1.40734 -9.788473,-3.68185 -1.904314,-2.06594 -2.415641,-3.56853 -3.257984,-9.57395 l -0.51956,-3.70417 -1.587496,-1.53394 -1.587496,-1.53394 -0.02167,1.40165 c -0.03317,2.1453 0.01512,4.37476 0.142091,6.56102 0.108151,1.86215 0.101127,1.89475 -0.114037,0.52917 -0.521991,-3.31292 -0.874124,-12.16909 -0.719102,-18.08548 0.273805,-10.44975 1.013279,-15.73382 2.671291,-19.08827 1.549434,-3.13478 4.417768,-5.62181 7.765415,-6.73311 3.682954,-1.22261 14.196086,-1.86513 30.492677,-1.8636 15.81535,10e-4 26.01035,0.58734 29.79857,1.71235 1.96786,0.58441 4.31147,2.09069 5.87563,3.77638 3.71268,4.00116 4.65378,9.08293 4.6669,25.20048 0.0135,16.54555 -1.01018,21.97043 -4.88911,25.91005 -2.79691,2.84068 -5.59502,3.93305 -11.50719,4.49239 -7.85704,0.74333 -27.72434,1.00344 -39.819797,0.52132 z m 13.241227,-18.61027 c 11.05271,-6.95053 14.68482,-9.34757 15.1794,-10.01779 0.74013,-1.00296 0.74008,-2.79773 -1.1e-4,-3.78914 -0.30325,-0.40617 -1.97013,-1.65115 -3.70417,-2.76663 -1.73404,-1.11547 -5.7563,-3.70891 -8.93835,-5.7632 -3.18205,-2.05429 -6.001283,-3.73506 -6.264959,-3.73506 -1.165547,0 -1.738426,1.65354 -0.847934,2.44745 0.254662,0.22704 4.213493,2.677 8.797393,5.44436 8.75127,5.28323 9.17015,5.62531 8.54742,6.98034 -0.18281,0.39778 -3.13072,2.28656 -8.58014,5.49746 -8.292669,4.8862 -9.492277,5.70432 -9.492277,6.47357 0,0.49664 0.926859,1.46723 1.401122,1.46723 0.188535,0 1.944705,-1.00737 3.902605,-2.23859 z m -3.306064,-6.24957 c 0.175672,-0.28425 -1.106618,-1.83059 -1.517997,-1.83059 -0.42649,0 -0.215072,1.56121 0.247938,1.83089 0.606849,0.35346 1.051486,0.35335 1.270059,-2.6e-4 z m -21.375308,23.91145 c 0.329119,-0.0633 0.805369,-0.0609 1.058334,0.005 0.252964,0.0662 -0.01632,0.118 -0.598398,0.11506 -0.582083,-0.003 -0.789054,-0.0571 -0.459936,-0.1204 z m -1.574048,-0.25819 c 0.190996,-0.0764 0.419199,-0.067 0.507118,0.0209 0.08792,0.0879 -0.06835,0.15046 -0.347266,0.13897 -0.308224,-0.0127 -0.370919,-0.0754 -0.159852,-0.15985 z m -1.058334,-0.26459 c 0.190997,-0.0764 0.4192,-0.067 0.507119,0.0209 0.08792,0.0879 -0.06835,0.15045 -0.347266,0.13896 -0.308225,-0.0127 -0.370919,-0.0754 -0.159853,-0.15985 z m -2.744091,-1.02448 c -0.484269,-0.38798 -0.475826,-0.39348 0.147867,-0.0965 0.809898,0.38571 0.959998,0.50792 0.623834,0.50792 -0.141961,0 -0.489227,-0.18516 -0.771701,-0.41147 z m -3.325465,-2.4328 c -0.329108,-0.41964 -0.319749,-0.429 0.09989,-0.0999 0.254661,0.19972 0.463021,0.40808 0.463021,0.46302 0,0.21776 -0.217273,0.0776 -0.562916,-0.36313 z m -1.058333,-1.32291 c -0.329108,-0.41965 -0.31975,-0.42901 0.09989,-0.0999 0.254662,0.19972 0.463021,0.40808 0.463021,0.46302 0,0.21776 -0.217272,0.0776 -0.562915,-0.36312 z m -2.591197,-6.04132 c 0.01269,-0.30823 0.07539,-0.37092 0.159853,-0.15986 0.07643,0.191 0.06703,0.4192 -0.02089,0.50712 -0.08792,0.0879 -0.150453,-0.0683 -0.138965,-0.34726 z m -0.233891,-1.30087 c 0.0054,-0.43656 0.06469,-0.58313 0.131774,-0.3257 0.06708,0.25744 0.06267,0.61462 -0.0098,0.79375 -0.07248,0.17914 -0.127363,-0.0315 -0.121971,-0.46805 z"
         id="path33"
         inkscape:connector-curvature="0" />
      <path
         style="fill:#9e3f98;stroke-width:0.26458335"
         d="m 113.18223,166.75354 c -0.0286,-0.0289 -1.00069,-0.0733 -2.1602,-0.0985 -3.05019,-0.0665 -3.88576,-0.37283 -5.40805,-1.98243 l -1.31205,-1.38729 -5.102385,-0.28346 c -2.806311,-0.1559 -6.709727,-0.35191 -8.674259,-0.43558 -6.073849,-0.25869 -12.34146,-0.9077 -14.144797,-1.46469 -3.117843,-0.96301 -5.504256,-3.49291 -6.351567,-6.73347 -0.976254,-3.73371 -1.717295,-13.4544 -1.724975,-22.62754 l -0.0037,-4.37391 -1.613606,-1.57922 -1.613605,-1.57922 0.163814,-2.24895 c 0.268068,-3.68023 0.85298,-6.32315 1.842412,-8.32495 1.55401,-3.14404 4.418657,-5.62981 7.769973,-6.74233 3.682954,-1.22261 14.196086,-1.86513 30.492675,-1.8636 15.81535,10e-4 26.01035,0.58734 29.79857,1.71235 1.96786,0.58441 4.31147,2.09069 5.87563,3.77638 3.71268,4.00116 4.65378,9.08293 4.6669,25.20048 0.0135,16.54555 -1.01018,21.97043 -4.88911,25.91005 -2.83395,2.87829 -5.58752,3.93522 -11.77178,4.51845 -2.92273,0.27564 -15.68405,0.76505 -15.83993,0.60748 z m -10.47405,-18.72249 c 11.05271,-6.95053 14.68482,-9.34757 15.1794,-10.01779 0.74013,-1.00296 0.74008,-2.79773 -1.1e-4,-3.78914 -0.30325,-0.40617 -1.97013,-1.65115 -3.70417,-2.76663 -1.73404,-1.11547 -5.7563,-3.70891 -8.93835,-5.7632 -3.18205,-2.05429 -6.001283,-3.73506 -6.264959,-3.73506 -1.165547,0 -1.738426,1.65354 -0.847934,2.44745 0.254662,0.22704 4.213493,2.677 8.797393,5.44436 8.75127,5.28323 9.17015,5.62531 8.54742,6.98034 -0.18281,0.39778 -3.13072,2.28656 -8.58014,5.49746 -8.292669,4.8862 -9.492277,5.70432 -9.492277,6.47357 0,0.49664 0.926859,1.46723 1.401122,1.46723 0.188535,0 1.944705,-1.00737 3.902605,-2.23859 z m -2.48443,-6.37383 c 0.48668,-0.37121 0.88487,-0.82142 0.88487,-1.00047 0,-0.47071 -3.12302,-3.49186 -3.362275,-3.25261 -0.110614,0.11062 -0.245031,1.07075 -0.298704,2.13363 -0.08983,1.77889 -0.04868,1.96677 0.517652,2.36344 0.837298,0.58647 1.224513,0.54464 2.258457,-0.24399 z"
         id="path31"
         inkscape:connector-curvature="0" />
      <path
         style="fill:#7148b5;stroke-width:0.26458335"
         d="m 113.18242,166.75354 c -0.0287,-0.0289 -1.00088,-0.0733 -2.16039,-0.0985 -3.05019,-0.0665 -3.88576,-0.37283 -5.40805,-1.98243 l -1.31205,-1.38729 -5.102385,-0.28346 c -2.806311,-0.1559 -6.709727,-0.35191 -8.674259,-0.43558 -6.073849,-0.25869 -12.34146,-0.9077 -14.144797,-1.46469 -3.117843,-0.96301 -5.504256,-3.49291 -6.351567,-6.73347 -0.976254,-3.73371 -1.717295,-13.4544 -1.724975,-22.62754 l -0.0037,-4.37391 -1.613606,-1.57922 -1.613605,-1.57922 0.163814,-2.24895 c 0.416176,-5.71356 1.533318,-8.84064 3.927194,-10.99294 l 1.376785,-1.23785 1.23401,1.34204 1.234011,1.34204 1.465231,-0.7936 c 1.766005,-0.95651 3.756123,-1.38316 9.171999,-1.96634 2.255573,-0.24288 4.271182,-0.49471 4.479132,-0.55964 0.261099,-0.0815 -0.05138,-0.55291 -1.00988,-1.52346 l -1.387968,-1.40543 1.803631,-0.17238 c 5.171035,-0.4942 16.213185,-0.75406 25.880715,-0.60906 19.82762,0.2974 23.16374,0.90516 27.15804,4.94756 3.99509,4.0432 4.8553,8.42794 4.8508,24.72593 -0.004,15.48948 -1.01259,21.58536 -4.1361,25.00516 l -0.78527,0.85976 -0.71144,-0.64257 c -1.46094,-1.31949 -1.43998,-1.31588 -2.70905,-0.46639 -1.80269,1.20669 -4.17656,1.80272 -8.74769,2.19637 -2.27189,0.19565 -4.26507,0.43876 -4.42928,0.54026 -0.18946,0.11709 0.23102,0.7354 1.15049,1.6918 0.79699,0.829 1.36142,1.52364 1.25428,1.54364 -0.10713,0.02 -0.84963,0.17805 -1.64999,0.35122 -1.18605,0.25661 -11.29247,0.80111 -11.47412,0.61819 z m -6.28692,-21.02118 c 4.16602,-2.64102 8.3852,-5.32202 9.37596,-5.95778 1.33144,-0.85436 1.908,-1.41107 2.21005,-2.13398 0.52557,-1.25788 0.32067,-2.82797 -0.48401,-3.70871 -1.09272,-1.19601 -18.183836,-12.23725 -18.94246,-12.23725 -1.447188,0 -2.25966,1.92688 -1.220639,2.89489 0.272852,0.2542 3.948909,2.521 8.169009,5.03732 9.00559,5.36977 9.39271,5.63715 9.39271,6.48758 0,0.95172 -0.13455,1.03931 -13.98098,9.10084 -3.425979,1.99464 -4.27527,2.68322 -4.27527,3.46627 0,0.6617 1.118523,1.85269 1.739963,1.85269 0.242605,0 3.849657,-2.16084 8.015667,-4.80187 z m -6.67175,-4.07514 c 0.48668,-0.37121 0.88487,-0.82142 0.88487,-1.00047 0,-0.47071 -3.12302,-3.49186 -3.362275,-3.25261 -0.110614,0.11062 -0.245031,1.07075 -0.298704,2.13363 -0.08983,1.77889 -0.04868,1.96677 0.517652,2.36344 0.837298,0.58647 1.224513,0.54464 2.258457,-0.24399 z m 4.58904,-2.8413 c 0,-0.39063 -6.812789,-7.22169 -7.007842,-7.02663 -0.0872,0.0872 -0.224925,0.56761 -0.30606,1.0676 -0.141017,0.86899 -0.01283,1.04603 2.908362,4.01639 l 3.05589,3.10733 0.67482,-0.44216 c 0.37116,-0.24319 0.67483,-0.56833 0.67483,-0.72253 z"
         id="path29"
         inkscape:connector-curvature="0" />
      <path
         style="fill:#d81557;stroke-width:0.26458335"
         d="m 93.435703,162.43758 c -11.102447,-0.40311 -16.187112,-0.95456 -18.375185,-1.99287 -0.509505,-0.24178 -1.439332,-0.89112 -2.066282,-1.44298 -3.307337,-2.91124 -4.035765,-7.17162 -4.026297,-23.54875 0.0083,-14.44335 0.507881,-18.16126 2.867146,-21.33966 2.150116,-2.89663 4.090252,-3.62937 11.811034,-4.46074 2.255573,-0.24288 4.271182,-0.49471 4.479132,-0.55964 0.261099,-0.0815 -0.05138,-0.55291 -1.00988,-1.52346 l -1.387968,-1.40543 1.803631,-0.17238 c 5.171035,-0.4942 16.213186,-0.75406 25.880716,-0.60906 19.82762,0.2974 23.16374,0.90516 27.15804,4.94756 3.99509,4.0432 4.8553,8.42794 4.8508,24.72593 -0.004,15.48948 -1.01259,21.58536 -4.1361,25.00516 l -0.78527,0.85976 -0.71144,-0.64257 c -1.46078,-1.31934 -1.44,-1.31575 -2.70905,-0.46792 -3.10416,2.07384 -7.30073,2.48547 -27.90032,2.73665 -5.23875,0.0639 -12.322967,0.0146 -15.742707,-0.1096 z m 9.537057,-14.14195 c 12.5706,-7.90505 14.68018,-9.31114 15.25798,-10.1698 0.80183,-1.19158 0.80578,-2.82794 0.01,-4.00073 -0.83939,-1.23651 -18.1779,-12.43046 -19.253773,-12.43046 -0.847553,0 -1.846757,0.87794 -1.846757,1.62264 0,0.94744 1.381683,1.93707 9.525,6.82227 l 8.33438,4.99982 v 0.98622 0.98622 l -7.54063,4.43784 c -9.927339,5.84246 -10.166202,6.00658 -10.268204,7.05491 -0.09672,0.99398 0.686464,1.92967 1.615159,1.92967 0.334055,0 2.209285,-1.00737 4.167185,-2.2386 z m -1.75454,-6.90637 c 3.04187,-1.71684 3.71872,-2.30353 3.37511,-2.92553 -0.39812,-0.72065 -6.61576,-6.84706 -6.781165,-6.68166 -0.621511,0.62151 -0.945753,8.75099 -0.390416,9.78864 0.22964,0.42908 0.987922,0.92362 1.547511,1.00924 0.06028,0.009 1.07231,-0.52658 2.24896,-1.19069 z"
         id="path27"
         inkscape:connector-curvature="0" />
      <path
         style="fill:#af226f;stroke-width:0.26458335"
         d="m 93.435703,162.43758 c -11.102447,-0.40311 -16.187112,-0.95456 -18.375185,-1.99287 -0.509505,-0.24178 -1.439332,-0.89112 -2.066282,-1.44298 -3.307337,-2.91124 -4.035765,-7.17162 -4.026297,-23.54875 0.0083,-14.44335 0.507881,-18.16126 2.867146,-21.33966 2.150116,-2.89663 4.090252,-3.62937 11.811034,-4.46074 2.255573,-0.24288 4.271182,-0.49471 4.479132,-0.55964 0.261069,-0.0815 -0.052,-0.55354 -1.011524,-1.52513 l -1.389613,-1.40709 1.992845,-0.18059 c 3.506642,-0.31776 12.882371,-0.67725 16.434371,-0.63014 2.08085,0.0276 2.68183,0.0817 1.52135,0.13694 -1.05502,0.0502 -1.91823,0.18548 -1.91823,0.30057 0,0.11509 0.32743,0.52361 0.72761,0.90782 0.40018,0.38421 1.00738,0.98478 1.34932,1.33459 0.71608,0.73255 1.17899,0.78289 11.41682,1.24166 11.75494,0.52676 16.36436,1.14633 18.69713,2.51313 1.47622,0.86494 3.15394,2.86412 3.76465,4.48598 1.16756,3.1007 1.80371,9.3559 2.05663,20.22263 l 0.17509,7.52262 1.39528,1.35141 c 1.54401,1.49546 1.64108,1.45122 1.72489,-0.78624 0.0263,-0.70116 0.0802,-0.84301 0.1599,-0.42032 0.18184,0.96469 -0.70871,8.35554 -1.2723,10.55915 -0.55698,2.17778 -1.4978,4.06343 -2.66498,5.34133 l -0.78527,0.85976 -0.71144,-0.64257 c -1.46078,-1.31934 -1.44,-1.31575 -2.70905,-0.46792 -3.10416,2.07384 -7.30073,2.48547 -27.90032,2.73665 -5.23875,0.0639 -12.322967,0.0146 -15.742707,-0.1096 z m 9.537057,-14.14195 c 12.5706,-7.90505 14.68018,-9.31114 15.25798,-10.1698 0.80183,-1.19158 0.80578,-2.82794 0.01,-4.00073 -0.83939,-1.23651 -18.1779,-12.43046 -19.253773,-12.43046 -0.847553,0 -1.846757,0.87794 -1.846757,1.62264 0,0.94744 1.381683,1.93707 9.525,6.82227 l 8.33438,4.99982 v 0.98622 0.98622 l -7.54063,4.43784 c -9.927339,5.84246 -10.166202,6.00658 -10.268204,7.05491 -0.09672,0.99398 0.686464,1.92967 1.615159,1.92967 0.334055,0 2.209285,-1.00737 4.167185,-2.2386 z m -1.75454,-6.90637 c 3.04187,-1.71684 3.71872,-2.30353 3.37511,-2.92553 -0.39812,-0.72065 -6.61576,-6.84706 -6.781165,-6.68166 -0.621511,0.62151 -0.945753,8.75099 -0.390416,9.78864 0.22964,0.42908 0.987922,0.92362 1.547511,1.00924 0.06028,0.009 1.07231,-0.52658 2.24896,-1.19069 z m 7.17847,-4.46905 c 1.25785,-1.25785 0.87558,-1.75288 -2.92244,-3.78442 -2.86569,-1.53284 -5.860952,-2.97448 -6.179997,-2.97448 -0.0896,0 1.500767,1.66687 3.534157,3.70417 3.98291,3.99054 4.40236,4.22065 5.56828,3.05473 z m 36.94893,5.01506 c 0.005,-0.43656 0.0647,-0.58313 0.13177,-0.3257 0.0671,0.25744 0.0627,0.61462 -0.01,0.79375 -0.0725,0.17913 -0.12737,-0.0315 -0.12197,-0.46805 z"
         id="path25"
         inkscape:connector-curvature="0" />
      <path
         style="fill:#0c0b10;stroke-width:0.26458335"
         d="m 93.435703,162.41745 c -10.908168,-0.36074 -16.168189,-0.92545 -18.375185,-1.97274 -2.23283,-1.05955 -4.20138,-3.53436 -4.899362,-6.15935 -0.759933,-2.85799 -1.112694,-7.35988 -1.252017,-15.97806 -0.189807,-11.74104 0.404644,-19.27079 1.763977,-22.34379 0.628565,-1.42097 2.726229,-3.68485 4.031161,-4.35058 2.461185,-1.2556 6.698088,-1.68694 20.848093,-2.12243 13.14173,-0.40446 31.94378,0.21781 36.81045,1.21827 4.66342,0.95868 7.10361,3.66234 8.0049,8.86921 1.16432,6.72645 1.27561,24.65181 0.19671,31.68456 -0.61909,4.03553 -1.12648,5.36226 -2.70608,7.07592 -1.46071,1.58469 -2.8744,2.39923 -5.00563,2.88415 -5.05195,1.14948 -23.6978,1.71469 -39.417017,1.19484 z m 9.537057,-14.12182 c 12.5706,-7.90505 14.68018,-9.31114 15.25798,-10.1698 0.80183,-1.19158 0.80578,-2.82794 0.01,-4.00073 -0.83939,-1.23651 -18.1779,-12.43046 -19.253773,-12.43046 -0.847553,0 -1.846757,0.87794 -1.846757,1.62264 0,0.94744 1.381683,1.93707 9.525,6.82227 l 8.33438,4.99982 v 0.98622 0.98622 l -7.54063,4.43784 c -9.927339,5.84246 -10.166202,6.00658 -10.268204,7.05491 -0.09672,0.99398 0.686464,1.92967 1.615159,1.92967 0.334055,0 2.209285,-1.00737 4.167185,-2.2386 z m 0.12023,-7.93168 c 5.50403,-3.08388 5.95313,-3.41283 5.95313,-4.36039 0,-0.42756 -0.16673,-0.9441 -0.3705,-1.14787 -0.73182,-0.73182 -9.087087,-5.22346 -9.709215,-5.2195 -1.623288,0.0103 -1.826535,0.73121 -1.826535,6.47824 0,2.98207 0.11136,5.13767 0.281879,5.45628 0.235119,0.43933 1.042546,0.95596 1.570204,1.00469 0.07276,0.007 1.918227,-0.98843 4.101037,-2.21145 z"
         id="path23"
         inkscape:connector-curvature="0" />
    </g>
  </g>
</svg>
